<svg xmlns="http://www.w3.org/2000/svg" xmlns:xlink="http://www.w3.org/1999/xlink" width="500" zoomAndPan="magnify" viewBox="0 0 375 374.999991" height="500" preserveAspectRatio="xMidYMid meet" version="1.0"><defs><filter x="0%" y="0%" width="100%" height="100%" id="id1"><feColorMatrix values="0 0 0 0 1 0 0 0 0 1 0 0 0 0 1 0 0 0 1 0" color-interpolation-filters="sRGB"/></filter><mask id="id2"><g filter="url(#id1)"><rect x="-37.5" width="450" fill="#000000" y="-37.499999" height="449.999989" fill-opacity="0.5373"/></g></mask><clipPath id="id3"><path d="M 0 1.210938 L 375 1.210938 L 375 343.960938 L 0 343.960938 Z M 0 1.210938 " clip-rule="nonzero"/></clipPath><clipPath id="id4"><rect x="0" width="375" y="0" height="362"/></clipPath></defs><rect x="-37.5" width="450" fill="#ffffff" y="-37.499999" height="449.999989" fill-opacity="1"/><rect x="-37.5" width="450" fill="#ffffff" y="-37.499999" height="449.999989" fill-opacity="1"/><rect x="-37.5" width="450" fill="#ff1616" y="-37.499999" height="449.999989" fill-opacity="1"/><path fill="#141313" d="M 375.027344 0.0117188 L 375.027344 375.027344 L 118.464844 375.027344 L 118.0625 265.878906 C 118.039062 262.738281 121.621094 260.929688 124.132812 262.8125 L 151.113281 283.03125 C 152.273438 283.898438 153.824219 284.03125 155.113281 283.375 L 200.15625 260.453125 C 202.664062 259.179688 202.960938 255.722656 200.714844 254.035156 L 119.054688 192.847656 C 118.105469 192.136719 117.542969 191.023438 117.535156 189.839844 L 117.207031 143.875 C 117.183594 140.746094 120.742188 138.933594 123.257812 140.796875 L 247.910156 232.851562 C 249.066406 233.703125 250.605469 233.832031 251.882812 233.179688 L 297.074219 210.1875 C 299.589844 208.902344 299.878906 205.425781 297.609375 203.75 L 69.566406 35.28125 C 67.054688 33.417969 63.496094 35.234375 63.519531 38.355469 L 65.464844 375.027344 L 0.0117188 375.027344 L 0.0117188 0.0117188 L 375.027344 0.0117188 " fill-opacity="1" fill-rule="nonzero"/><g mask="url(#id2)"><g transform="matrix(1, 0, 0, 1, 0, 13)"><g clip-path="url(#id4)"><g clip-path="url(#id3)"><path fill="#141313" d="M 375.027344 1.222656 L 375.027344 376.238281 L 118.464844 376.238281 L 118.0625 267.089844 C 118.039062 263.949219 121.621094 262.140625 124.132812 264.023438 L 151.113281 284.242188 C 152.273438 285.109375 153.824219 285.242188 155.113281 284.585938 L 200.15625 261.664062 C 202.664062 260.390625 202.960938 256.933594 200.714844 255.246094 L 119.054688 194.058594 C 118.105469 193.347656 117.542969 192.234375 117.535156 191.050781 L 117.207031 145.085938 C 117.183594 141.957031 120.742188 140.144531 123.257812 142.007812 L 247.910156 234.0625 C 249.066406 234.914062 250.605469 235.042969 251.882812 234.390625 L 297.074219 211.398438 C 299.589844 210.113281 299.878906 206.636719 297.609375 204.960938 L 69.566406 36.492188 C 67.054688 34.628906 63.496094 36.445312 63.519531 39.566406 L 65.464844 376.238281 L 0.0117188 376.238281 L 0.0117188 1.222656 L 375.027344 1.222656 " fill-opacity="1" fill-rule="nonzero"/></g></g></g></g></svg>